<?xml version="1.0" encoding="UTF-8" standalone="no"?>
<!-- Created with Sodipodi ("http://www.sodipodi.com/") -->
<svg
   xmlns:xml="http://www.w3.org/XML/1998/namespace"
   xmlns:dc="http://purl.org/dc/elements/1.1/"
   xmlns:cc="http://web.resource.org/cc/"
   xmlns:rdf="http://www.w3.org/1999/02/22-rdf-syntax-ns#"
   xmlns:svg="http://www.w3.org/2000/svg"
   xmlns="http://www.w3.org/2000/svg"
   xmlns:xlink="http://www.w3.org/1999/xlink"
   xmlns:sodipodi="http://inkscape.sourceforge.net/DTD/sodipodi-0.dtd"
   xmlns:inkscape="http://www.inkscape.org/namespaces/inkscape"
   inkscape:version="0.41"
   sodipodi:docname="laughing_man_2.svg"
   sodipodi:docbase="/root"
   xml:space="preserve"
   height="297mm"
   width="210mm"
   sodipodi:version="0.32"
   id="svg706">
  <metadata
     id="metadata77">
    <rdf:RDF
       id="RDF79">
      <cc:Work
         id="Work81"
         rdf:about="">
        <dc:format
           id="format83">image/svg+xml</dc:format>
        <dc:type
           rdf:resource="http://purl.org/dc/dcmitype/StillImage"
           id="type85" />
      </cc:Work>
    </rdf:RDF>
  </metadata>
  <defs
     id="defs708" />
  <sodipodi:namedview
     inkscape:current-layer="svg706"
     inkscape:window-y="0"
     inkscape:window-x="26"
     inkscape:window-height="1096"
     inkscape:window-width="1385"
     inkscape:cy="530.50986"
     inkscape:cx="449.55101"
     inkscape:zoom="2.7519043"
     id="base" />
  <path
     transform="matrix(-0.290035,-0.800770,0.800770,-0.290035,72.83368,979.0889)"
     d="M 503.65125 524.72754 A 143.90036 143.90036 0 1 1  215.85052,524.72754 A 143.90036 143.90036 0 1 1  503.65125 524.72754 z"
     sodipodi:ry="143.90036"
     sodipodi:rx="143.90036"
     sodipodi:cy="524.72754"
     sodipodi:cx="359.75089"
     id="path1366"
     style="fill:#ff0000;fill-opacity:0.75000000;fill-rule:evenodd;stroke:#000000;stroke-width:1.0000000px;stroke-linecap:butt;stroke-linejoin:miter;stroke-opacity:1.0000000"
     sodipodi:type="arc" />
  <path
     transform="matrix(0.877682,0.000000,0.000000,0.877682,69.23047,80.26008)"
     sodipodi:ry="174.03262"
     sodipodi:rx="174.03264"
     sodipodi:cy="523.06287"
     sodipodi:cx="363.66821"
     d="M 537.70085 523.06287 A 174.03264 174.03262 0 1 1  189.63557,523.06287 A 174.03264 174.03262 0 1 1  537.70085 523.06287 z"
     id="path1065"
     style="fill:#ffffff;fill-opacity:1.0000000;fill-rule:evenodd;stroke:none;stroke-width:1.0000000pt;stroke-linecap:butt;stroke-linejoin:miter;stroke-opacity:1.0000000"
     sodipodi:type="arc" />
  <path
     transform="matrix(0.877682,0.000000,0.000000,0.877682,69.23047,80.26008)"
     sodipodi:ry="29.704041"
     sodipodi:rx="29.704071"
     sodipodi:cy="521.93250"
     sodipodi:cx="548.25208"
     d="M 577.95615 521.93250 A 29.704071 29.704041 0 1 1  518.54800,521.93250 A 29.704071 29.704041 0 1 1  577.95615 521.93250 z"
     id="path1066"
     style="fill:#ffffff;fill-opacity:1.0000000;fill-rule:evenodd;stroke:none;stroke-width:1.0000000pt;stroke-linecap:butt;stroke-linejoin:miter;stroke-opacity:1.0000000"
     sodipodi:type="arc" />
  <path
     id="path663"
     d="M 548.00601,538.79407 C 548.00601,626.67198 476.69435,697.87393 388.65187,697.87393 C 300.66425,697.87393 229.35259,626.67198 229.35259,538.79407 C 229.35259,450.97101 300.66425,379.76906 388.65187,379.76906 C 476.69435,379.76906 548.00601,450.97101 548.00601,538.79407 z M 537.47382,538.57465 C 537.47382,620.41849 470.82485,686.84805 388.65187,686.84805 C 306.42404,686.84805 239.82992,620.41849 239.82992,538.57465 C 239.82992,456.67594 306.42404,390.30124 388.65187,390.30124 C 470.82485,390.30124 537.47382,456.67594 537.47382,538.57465 z "
     style="font-size:12.000000;fill:#004b73;fill-opacity:0.99610001;fill-rule:evenodd;stroke:none;stroke-width:1.2500000" />
  <path
     id="path666"
     d="M 503.49981,539.69703 C 503.49981,603.49354 451.66171,655.22192 387.75549,655.22192 C 323.79442,655.22192 272.01118,603.49354 272.01118,539.69703 C 272.01118,475.84566 323.79442,424.11728 387.75549,424.11728 C 451.66171,424.11728 503.49981,475.84566 503.49981,539.69703 z M 485.45247,539.91645 C 485.45247,592.85164 442.39120,635.74835 389.29144,635.74835 C 336.13682,635.74835 293.07555,592.85164 293.07555,539.91645 C 293.07555,486.98125 336.13682,444.08454 389.29144,444.08454 C 442.39120,444.08454 485.45247,486.98125 485.45247,539.91645 z "
     style="font-size:12.000000;fill:#004b73;fill-opacity:1.0000000;fill-rule:evenodd;stroke:none;stroke-width:1.2500000" />
  <rect
     y="418.80341"
     x="381.70377"
     height="20.856384"
     width="15.642282"
     id="rect667"
     style="font-size:12.000000;fill:#004b73;fill-opacity:1.0000000;fill-rule:evenodd;stroke-width:1.0000000" />
  <path
     id="path670"
     d="M 582.78416,538.79407 C 582.78416,557.71908 567.42472,573.07852 548.55456,573.07852 C 529.62954,573.07852 514.27011,557.71908 514.27011,538.79407 C 514.27011,519.92390 529.62954,504.56447 548.55456,504.56447 C 567.42472,504.56447 582.78416,519.92390 582.78416,538.79407 z M 563.09117,539.12320 C 563.09117,547.73545 556.06971,554.75691 547.45746,554.75691 C 538.79035,554.75691 531.76889,547.73545 531.76889,539.12320 C 531.76889,530.45609 538.79035,523.43463 547.45746,523.43463 C 556.06971,523.43463 563.09117,530.45609 563.09117,539.12320 z "
     style="font-size:12.000000;fill:#004b73;fill-opacity:1.0000000;fill-rule:evenodd;stroke:none;stroke-width:1.0000000" />
  <path
     id="path691"
     d="M 474.22586,554.75691 C 466.82042,594.80115 431.65829,625.13603 389.47470,625.13603 C 347.29111,625.13603 312.12897,594.80115 304.66867,554.75691 L 326.22674,554.75691 C 333.13848,583.22672 358.86554,604.29109 389.47470,604.29109 C 420.08386,604.29109 445.81091,583.22672 452.72266,554.75691 L 474.22586,554.75691 z M 326.22674,554.75691 L 452.72266,554.75691"
     style="font-size:12.000000;fill:#004b73;fill-rule:evenodd" />
  <rect
     y="554.74243"
     x="315.03778"
     height="18.313845"
     width="148.97415"
     id="rect709"
     style="font-size:12.000000;fill:#004b73;fill-opacity:1.0000000;fill-rule:evenodd;stroke-width:1.0000000" />
  <path
     sodipodi:nodetypes="ccc"
     id="path716"
     d="M 367.92374,549.90069 C 350.60550,536.12056 340.75053,536.12056 323.97627,549.90069 C 329.54832,524.94749 361.04526,524.94749 367.92374,549.90069 z "
     style="font-size:12.000000;fill:#004b73;fill-opacity:1.0000000;fill-rule:evenodd;stroke:none;stroke-width:1.0000000" />
  <path
     sodipodi:nodetypes="ccc"
     id="path741"
     d="M 453.02563,549.90069 C 435.70739,536.12056 425.85242,536.12056 409.07816,549.90069 C 414.65021,524.94749 446.14715,524.94749 453.02563,549.90069 z "
     style="font-size:12.000000;fill:#004b73;fill-opacity:1.0000000;fill-rule:evenodd;stroke:none;stroke-width:1.0000000" />
  <rect
     y="554.47906"
     x="488.59268"
     height="18.577206"
     width="59.410912"
     id="rect672"
     style="font-size:12.000000;fill:#004b73;fill-opacity:1.0000000;fill-rule:evenodd;stroke-width:1.0000000" />
  <text
     sodipodi:linespacing="100%"
     id="text1368"
     style="font-size:28.000000;font-style:normal;font-variant:normal;font-weight:normal;font-stretch:condensed;fill:#004b73;fill-opacity:1.0000000;stroke:none;stroke-width:1.0000000px;stroke-linecap:butt;stroke-linejoin:miter;stroke-opacity:1.0000000;font-family:Impact;text-anchor:start;writing-mode:lr;line-height:100%"
     xml:space="preserve"><textPath
       id="textPath1372"
       xlink:href="#path1366"><tspan
   style="fill-opacity:1.0000000;fill:#004b73;font-family:Impact;font-weight:normal;font-style:normal;font-stretch:condensed;font-variant:normal;font-size:28.000000;text-anchor:start;writing-mode:lr;line-height:100%"
   id="tspan1370">I thought what I'd do was, I'd pretend I was one of those deaf-mutes</tspan></textPath></text>
  <rect
     y="523.64368"
     x="474.82928"
     height="31.098473"
     width="74.105408"
     id="rect875"
     style="font-size:12.000000;fill:#fdfdfd;fill-opacity:0.99610001;fill-rule:evenodd;stroke:none;stroke-width:1.0000000;stroke-opacity:1.0000000" />
  <rect
     y="504.75851"
     x="292.55258"
     height="19.136181"
     width="258.58481"
     id="rect671"
     style="font-size:12.000000;fill:#004b73;fill-opacity:1.0000000;fill-rule:evenodd;stroke-width:1.0000000" />
  <rect
     y="523.90247"
     x="272.01123"
     height="8.3341408"
     width="23.227428"
     id="rect703"
     style="font-size:12.000000;fill:#ffffff;fill-opacity:1.0000000;fill-rule:evenodd;stroke-width:1.0000000" />
  <g
     inkscape:label="test"
     id="layer1"
     inkscape:groupmode="layer" />
</svg>
